<mxfile host="app.diagrams.net" modified="2021-07-25T04:06:35.344Z" agent="5.0 (Windows NT 10.0; Win64; x64) AppleWebKit/537.36 (KHTML, like Gecko) Chrome/91.0.4472.164 Safari/537.36 OPR/77.0.4054.275" etag="_KiRMidVoyYLxdleIDDz" version="14.9.2" type="github">
  <diagram id="R0Z_d-4Q6hGbQkojytdc" name="Page-1">
    <mxGraphModel dx="713" dy="831" grid="1" gridSize="10" guides="1" tooltips="1" connect="1" arrows="1" fold="1" page="1" pageScale="1" pageWidth="827" pageHeight="1169" math="0" shadow="0">
      <root>
        <mxCell id="0" />
        <mxCell id="1" parent="0" />
        <mxCell id="N84XFoRarYHuizojVXFv-1" value="BurgerKing" style="swimlane;fontStyle=1;align=center;verticalAlign=top;childLayout=stackLayout;horizontal=1;startSize=26;horizontalStack=0;resizeParent=1;resizeParentMax=0;resizeLast=0;collapsible=1;marginBottom=0;" vertex="1" parent="1">
          <mxGeometry x="100" y="260" width="160" height="60" as="geometry" />
        </mxCell>
        <mxCell id="N84XFoRarYHuizojVXFv-3" value="" style="line;strokeWidth=1;fillColor=none;align=left;verticalAlign=middle;spacingTop=-1;spacingLeft=3;spacingRight=3;rotatable=0;labelPosition=right;points=[];portConstraint=eastwest;" vertex="1" parent="N84XFoRarYHuizojVXFv-1">
          <mxGeometry y="26" width="160" height="8" as="geometry" />
        </mxCell>
        <mxCell id="N84XFoRarYHuizojVXFv-4" value="+ Hburger(): string" style="text;strokeColor=none;fillColor=none;align=left;verticalAlign=top;spacingLeft=4;spacingRight=4;overflow=hidden;rotatable=0;points=[[0,0.5],[1,0.5]];portConstraint=eastwest;" vertex="1" parent="N84XFoRarYHuizojVXFv-1">
          <mxGeometry y="34" width="160" height="26" as="geometry" />
        </mxCell>
        <mxCell id="N84XFoRarYHuizojVXFv-11" value="BurgerDeco" style="swimlane;fontStyle=1;align=center;verticalAlign=top;childLayout=stackLayout;horizontal=1;startSize=26;horizontalStack=0;resizeParent=1;resizeParentMax=0;resizeLast=0;collapsible=1;marginBottom=0;" vertex="1" parent="1">
          <mxGeometry x="290" y="260" width="200" height="100" as="geometry" />
        </mxCell>
        <mxCell id="N84XFoRarYHuizojVXFv-12" value="- instancia: _hambur {read only}" style="text;strokeColor=none;fillColor=none;align=left;verticalAlign=top;spacingLeft=4;spacingRight=4;overflow=hidden;rotatable=0;points=[[0,0.5],[1,0.5]];portConstraint=eastwest;" vertex="1" parent="N84XFoRarYHuizojVXFv-11">
          <mxGeometry y="26" width="200" height="26" as="geometry" />
        </mxCell>
        <mxCell id="N84XFoRarYHuizojVXFv-13" value="" style="line;strokeWidth=1;fillColor=none;align=left;verticalAlign=middle;spacingTop=-1;spacingLeft=3;spacingRight=3;rotatable=0;labelPosition=right;points=[];portConstraint=eastwest;" vertex="1" parent="N84XFoRarYHuizojVXFv-11">
          <mxGeometry y="52" width="200" height="8" as="geometry" />
        </mxCell>
        <mxCell id="N84XFoRarYHuizojVXFv-14" value="+ BurgerDeco(Burger hambur)&#xa;+ virtual Hburger(): string" style="text;strokeColor=none;fillColor=none;align=left;verticalAlign=top;spacingLeft=4;spacingRight=4;overflow=hidden;rotatable=0;points=[[0,0.5],[1,0.5]];portConstraint=eastwest;" vertex="1" parent="N84XFoRarYHuizojVXFv-11">
          <mxGeometry y="60" width="200" height="40" as="geometry" />
        </mxCell>
        <mxCell id="N84XFoRarYHuizojVXFv-15" value="BaconDeco" style="swimlane;fontStyle=1;align=center;verticalAlign=top;childLayout=stackLayout;horizontal=1;startSize=26;horizontalStack=0;resizeParent=1;resizeParentMax=0;resizeLast=0;collapsible=1;marginBottom=0;" vertex="1" parent="1">
          <mxGeometry x="530" y="220" width="180" height="74" as="geometry" />
        </mxCell>
        <mxCell id="N84XFoRarYHuizojVXFv-17" value="" style="line;strokeWidth=1;fillColor=none;align=left;verticalAlign=middle;spacingTop=-1;spacingLeft=3;spacingRight=3;rotatable=0;labelPosition=right;points=[];portConstraint=eastwest;" vertex="1" parent="N84XFoRarYHuizojVXFv-15">
          <mxGeometry y="26" width="180" height="8" as="geometry" />
        </mxCell>
        <mxCell id="N84XFoRarYHuizojVXFv-18" value="+ BaconDeco(Burger hambur)&#xa;+ override Hburger(): string&#xa;" style="text;strokeColor=none;fillColor=none;align=left;verticalAlign=top;spacingLeft=4;spacingRight=4;overflow=hidden;rotatable=0;points=[[0,0.5],[1,0.5]];portConstraint=eastwest;" vertex="1" parent="N84XFoRarYHuizojVXFv-15">
          <mxGeometry y="34" width="180" height="40" as="geometry" />
        </mxCell>
        <mxCell id="N84XFoRarYHuizojVXFv-20" value="&lt;p style=&quot;margin: 0px ; margin-top: 4px ; text-align: center&quot;&gt;&lt;i&gt;&amp;lt;&amp;lt;Interface&amp;gt;&amp;gt;&lt;/i&gt;&lt;/p&gt;&lt;p style=&quot;margin: 0px ; margin-top: 4px ; text-align: center&quot;&gt;&lt;i&gt;&lt;b&gt;Burger&lt;/b&gt;&lt;/i&gt;&lt;/p&gt;&lt;hr size=&quot;1&quot;&gt;&lt;p style=&quot;margin: 0px ; margin-left: 4px&quot;&gt;+ Hburger(): string&lt;br&gt;&lt;/p&gt;" style="verticalAlign=top;align=left;overflow=fill;fontSize=12;fontFamily=Helvetica;html=1;" vertex="1" parent="1">
          <mxGeometry x="190" y="149" width="190" height="71" as="geometry" />
        </mxCell>
        <mxCell id="N84XFoRarYHuizojVXFv-21" value="" style="endArrow=block;endFill=1;html=1;edgeStyle=orthogonalEdgeStyle;align=left;verticalAlign=top;exitX=0.463;exitY=-0.017;exitDx=0;exitDy=0;exitPerimeter=0;entryX=0.305;entryY=1;entryDx=0;entryDy=0;entryPerimeter=0;" edge="1" parent="1" source="N84XFoRarYHuizojVXFv-1" target="N84XFoRarYHuizojVXFv-20">
          <mxGeometry x="-1" relative="1" as="geometry">
            <mxPoint x="180" y="200" as="sourcePoint" />
            <mxPoint x="240" y="170" as="targetPoint" />
          </mxGeometry>
        </mxCell>
        <mxCell id="N84XFoRarYHuizojVXFv-22" value="1" style="edgeLabel;resizable=0;html=1;align=left;verticalAlign=bottom;" connectable="0" vertex="1" parent="N84XFoRarYHuizojVXFv-21">
          <mxGeometry x="-1" relative="1" as="geometry" />
        </mxCell>
        <mxCell id="N84XFoRarYHuizojVXFv-23" value="" style="endArrow=block;endFill=1;html=1;edgeStyle=orthogonalEdgeStyle;align=left;verticalAlign=top;exitX=0.5;exitY=0;exitDx=0;exitDy=0;entryX=0.711;entryY=1;entryDx=0;entryDy=0;entryPerimeter=0;" edge="1" parent="1" source="N84XFoRarYHuizojVXFv-11" target="N84XFoRarYHuizojVXFv-20">
          <mxGeometry x="-1" relative="1" as="geometry">
            <mxPoint x="360" y="260" as="sourcePoint" />
            <mxPoint x="314" y="170" as="targetPoint" />
          </mxGeometry>
        </mxCell>
        <mxCell id="N84XFoRarYHuizojVXFv-24" value="1" style="edgeLabel;resizable=0;html=1;align=left;verticalAlign=bottom;" connectable="0" vertex="1" parent="N84XFoRarYHuizojVXFv-23">
          <mxGeometry x="-1" relative="1" as="geometry" />
        </mxCell>
        <mxCell id="N84XFoRarYHuizojVXFv-25" value="" style="endArrow=block;endFill=1;html=1;edgeStyle=orthogonalEdgeStyle;align=left;verticalAlign=top;entryX=1;entryY=0.5;entryDx=0;entryDy=0;exitX=-0.006;exitY=0.125;exitDx=0;exitDy=0;exitPerimeter=0;" edge="1" parent="1" source="N84XFoRarYHuizojVXFv-18" target="N84XFoRarYHuizojVXFv-12">
          <mxGeometry x="-1" y="50" relative="1" as="geometry">
            <mxPoint x="530" y="230" as="sourcePoint" />
            <mxPoint x="387" y="360" as="targetPoint" />
            <Array as="points">
              <mxPoint x="510" y="259" />
              <mxPoint x="510" y="299" />
            </Array>
            <mxPoint x="40" y="-20" as="offset" />
          </mxGeometry>
        </mxCell>
        <mxCell id="N84XFoRarYHuizojVXFv-26" value="1" style="edgeLabel;resizable=0;html=1;align=left;verticalAlign=bottom;" connectable="0" vertex="1" parent="N84XFoRarYHuizojVXFv-25">
          <mxGeometry x="-1" relative="1" as="geometry">
            <mxPoint y="20" as="offset" />
          </mxGeometry>
        </mxCell>
        <mxCell id="N84XFoRarYHuizojVXFv-29" value="CeboDeco" style="swimlane;fontStyle=1;align=center;verticalAlign=top;childLayout=stackLayout;horizontal=1;startSize=26;horizontalStack=0;resizeParent=1;resizeParentMax=0;resizeLast=0;collapsible=1;marginBottom=0;" vertex="1" parent="1">
          <mxGeometry x="530" y="310" width="180" height="74" as="geometry" />
        </mxCell>
        <mxCell id="N84XFoRarYHuizojVXFv-31" value="" style="line;strokeWidth=1;fillColor=none;align=left;verticalAlign=middle;spacingTop=-1;spacingLeft=3;spacingRight=3;rotatable=0;labelPosition=right;points=[];portConstraint=eastwest;" vertex="1" parent="N84XFoRarYHuizojVXFv-29">
          <mxGeometry y="26" width="180" height="8" as="geometry" />
        </mxCell>
        <mxCell id="N84XFoRarYHuizojVXFv-32" value="+ CeboDeco(Burger hambur)&#xa;+ override Hburger(): string&#xa;" style="text;strokeColor=none;fillColor=none;align=left;verticalAlign=top;spacingLeft=4;spacingRight=4;overflow=hidden;rotatable=0;points=[[0,0.5],[1,0.5]];portConstraint=eastwest;" vertex="1" parent="N84XFoRarYHuizojVXFv-29">
          <mxGeometry y="34" width="180" height="40" as="geometry" />
        </mxCell>
        <mxCell id="N84XFoRarYHuizojVXFv-34" value="" style="endArrow=block;endFill=1;html=1;edgeStyle=orthogonalEdgeStyle;align=left;verticalAlign=top;exitX=-0.017;exitY=0.15;exitDx=0;exitDy=0;exitPerimeter=0;entryX=1.01;entryY=0.125;entryDx=0;entryDy=0;entryPerimeter=0;" edge="1" parent="1" source="N84XFoRarYHuizojVXFv-32" target="N84XFoRarYHuizojVXFv-14">
          <mxGeometry x="-1" y="50" relative="1" as="geometry">
            <mxPoint x="280" y="410" as="sourcePoint" />
            <mxPoint x="380" y="360" as="targetPoint" />
            <Array as="points">
              <mxPoint x="510" y="350" />
              <mxPoint x="510" y="325" />
            </Array>
            <mxPoint x="40" y="-20" as="offset" />
          </mxGeometry>
        </mxCell>
        <mxCell id="N84XFoRarYHuizojVXFv-35" value="1" style="edgeLabel;resizable=0;html=1;align=left;verticalAlign=bottom;" connectable="0" vertex="1" parent="N84XFoRarYHuizojVXFv-34">
          <mxGeometry x="-1" relative="1" as="geometry" />
        </mxCell>
      </root>
    </mxGraphModel>
  </diagram>
</mxfile>
